<svg xmlns="http://www.w3.org/2000/svg" viewBox="0 0 17.3 24.9"><defs><style>.\35 deb8c4f-cc43-4e92-afb3-550a93f8a62e{fill:#ff2400;}</style></defs><title>Asset 12</title><g id="2369f301-7529-414e-b9b4-00de5a15603f" data-name="Layer 2"><g id="b795daf6-27a2-42d2-b858-ad185777789b" data-name="Layer 1"><path d="M15,9.7h-.3V5.1A5.87,5.87,0,0,0,8.6,0,5.79,5.79,0,0,0,2.5,5.2V9.8H2.2A2.22,2.22,0,0,0,0,12V22.7a2.22,2.22,0,0,0,2.2,2.2H15.1a2.22,2.22,0,0,0,2.2-2.2V12A2.55,2.55,0,0,0,15,9.7ZM3.9,5.2A4.34,4.34,0,0,1,8.5,1.4a4.35,4.35,0,0,1,4.6,3.7V9.7H3.9ZM15.6,22.6a.58.58,0,0,1-.6.6H2.1a.58.58,0,0,1-.6-.6V11.9a.58.58,0,0,1,.6-.6H15a.58.58,0,0,1,.6.6Z"/><path class="5deb8c4f-cc43-4e92-afb3-550a93f8a62e" d="M15.6,22.6a.58.58,0,0,1-.6.6H2.1a.58.58,0,0,1-.6-.6V11.9a.58.58,0,0,1,.6-.6H15a.58.58,0,0,1,.6.6Z"/><path d="M8.9,22.4H7.5c-.3,0-.8-.2-.8-.3a8.66,8.66,0,0,0,.2-1c0-.3-.5-.8-.9-1.4S5.1,18.1,5,18s-.1-.2-.1-.6V16.1c0-.2.2-.2.5-.3s.3,0,.6.2.2.6.2.8,0,.8.2.8.3-.3.3-1.2V13.3a.47.47,0,0,1,.5-.5c.3,0,.5,0,.5.5v2.2c0,.2,0,.7.2.7s.2-.2.2-.8V12.5a.54.54,0,0,1,.5-.5c.3,0,.4.1.4.5v3.1c0,.3,0,.5.2.5s.2-.4.2-.9v-2c0-.2,0-.4.4-.4s.5.2.5.5v2.6c0,.2,0,.4.1.4s.2-.4.2-.7V14.3c0-.1.2-.6.5-.6a.47.47,0,0,1,.5.5v4.1c0,.5-.4,1.1-.4,1.7s.1,1.4.1,1.6-.1.2-.5.4A5.33,5.33,0,0,1,8.9,22.4Z"/></g></g></svg>