<svg xmlns="http://www.w3.org/2000/svg" viewBox="0 0 25.6 24.9"><title>Asset 20</title><g id="4a670de4-2d5e-4d21-829a-0dfe6e264a74" data-name="Layer 2"><g id="8ddf298b-faa8-42dc-ad76-6e60db79e7bf" data-name="Layer 1"><path d="M23.3,9.7H12.2V5.1A5.87,5.87,0,0,0,6.1,0,5.87,5.87,0,0,0,0,5.2v5.3a.79.79,0,0,0,.8.8.74.74,0,0,0,.8-.8V5.3A4.34,4.34,0,0,1,6.2,1.5a4.35,4.35,0,0,1,4.6,3.7V9.8h-.3A2.22,2.22,0,0,0,8.3,12V22.7a2.22,2.22,0,0,0,2.2,2.2H23.4a2.22,2.22,0,0,0,2.2-2.2V11.8A2.54,2.54,0,0,0,23.3,9.7Zm.6,12.9a.58.58,0,0,1-.6.6H10.4a.58.58,0,0,1-.6-.6V11.8a.58.58,0,0,1,.6-.6H23.3a.58.58,0,0,1,.6.6Z"/><path d="M17.2,22.4H15.8c-.3,0-.8-.2-.8-.3a8.66,8.66,0,0,0,.2-1c0-.3-.5-.8-.9-1.4s-.9-1.6-1-1.7-.1-.2-.1-.6V16.1c0-.2.2-.2.5-.3s.3,0,.6.2.2.6.2.8,0,.8.2.8.3-.3.3-1.2V13.3a.47.47,0,0,1,.5-.5c.3,0,.5,0,.5.5v2.2c0,.2,0,.7.2.7s.2-.2.2-.8V12.5a.54.54,0,0,1,.5-.5c.3,0,.4.1.4.5v3.1c0,.3,0,.5.2.5s.2-.4.2-.9v-2c0-.2,0-.4.4-.4s.5.2.5.5v2.6c0,.2,0,.4.1.4s.2-.4.2-.7V14.3c0-.1.2-.6.5-.6a.47.47,0,0,1,.5.5v4.1c0,.5-.4,1.1-.4,1.7s.1,1.4.1,1.6-.1.2-.5.4A5.33,5.33,0,0,1,17.2,22.4Z"/></g></g></svg>