<svg xmlns="http://www.w3.org/2000/svg" viewBox="0 0 25.6 24.9"><title>helmet-unlocked-bike</title><g id="5a1195fa-82fa-49a0-aecb-a5c80ec7f314" data-name="Layer 2"><g id="f4c0c854-afd8-41cc-9e67-f9dacdc0ff9f" data-name="Layer 1"><path d="M23.3,9.7H12.2V5.1A5.87,5.87,0,0,0,6.1,0,5.87,5.87,0,0,0,0,5.2v5.3a.79.79,0,0,0,.8.8.74.74,0,0,0,.8-.8V5.3A4.34,4.34,0,0,1,6.2,1.5a4.35,4.35,0,0,1,4.6,3.7V9.8h-.3A2.22,2.22,0,0,0,8.3,12V22.7a2.22,2.22,0,0,0,2.2,2.2H23.4a2.22,2.22,0,0,0,2.2-2.2V12A2.47,2.47,0,0,0,23.3,9.7Zm.6,12.9a.58.58,0,0,1-.6.6H10.4a.58.58,0,0,1-.6-.6V11.9a.58.58,0,0,1,.6-.6H23.3a.58.58,0,0,1,.6.6Z"/><path d="M17.2,22.2a.36.36,0,0,1-.2-.3v-.4h0v-.4a.9.9,0,0,0-.1-.5.1.1,0,0,0-.1-.1,10.91,10.91,0,0,1-.6-1.1c-.2-.5-.4-.9-.6-1.4h0c-.1,0-.1,0-.2-.1s-.2-.1-.3-.2l-.2-.2a2.09,2.09,0,0,0-.6-.4c-.2-.1-.5-.2-.7-.3s-.4-.1-.6-.3l-.1-.1-.2-.2a.1.1,0,0,0-.1-.1h-.1a2.35,2.35,0,0,1-.8-.2c-.2,0-.3-.1-.5-.2l-.1-.1a1.91,1.91,0,0,1-.5-1v-.2h.1c.1,0,.2-.1.4-.1s.4-.1.6-.1.1-.1.2-.1H12a4.33,4.33,0,0,0,.5-.1,4.87,4.87,0,0,0,1.1-.4c.1-.1.2-.1.3-.2a3.59,3.59,0,0,1,1-.7c.3-.1.7-.2,1-.3s.4-.1.7-.1a.6.6,0,0,0,.4-.1c.2,0,.5-.1.7-.1h.5a2,2,0,0,1,.8.1.6.6,0,0,1,.4.1,2,2,0,0,1,.9.5.35.35,0,0,1,.1.2h.1c.1,0,.1,0,.2.1s.3.1.5.2a2.09,2.09,0,0,1,.6.4.1.1,0,0,1,.1.1v.1c0,.1,0,.1-.1.2s-.1.1-.1.2v.1c0,.1.1.2.1.3a2.35,2.35,0,0,1,.2.8v.8h0v.2c0,.2-.1.4-.1.6a2.54,2.54,0,0,1-.2.7v.1c.1.1,0,.2,0,.3s-.1.2-.2.2-.2.2-.3.2l-.3.3a1.14,1.14,0,0,1-.6.3h-.2a.37.37,0,0,1-.3-.1l-.3-.3-.1-.1c-.1,0-.1,0-.2-.1h-.1a36900280179.48,36900280179.48,0,0,1-.2.2c-.1.1-.2.2-.2.3s-.1.2-.1.3-.1.3-.2.4-.1.3-.2.5-.1.3-.2.5-.1.2-.2.4-.1.2-.1.3v.2h0v.2c0,.1,0,.1-.1.1v.1C17.7,22.4,17.4,22.2,17.2,22.2Zm.5-2.3h0a9.14,9.14,0,0,0,.7-1.4c.1-.2.2-.3.3-.5h0v-.1l-.2-.2-.3-.3-.2-.2c-.1-.1-.1-.1-.2,0a.6.6,0,0,0-.4.1c-.1,0-.2.1-.3.1h0A10.15,10.15,0,0,0,17.7,19.9Zm-4.8-5h-.3l-.2.2v.1l.1.1a.76.76,0,0,0,.4.2h0L13,15Z"/></g></g></svg>