<svg xmlns="http://www.w3.org/2000/svg" viewBox="0 0 17.3 24.9"><defs><style>.\35 24e31bd-82bc-4c99-bf5f-05d057b820a0{fill:#00aeef;}</style></defs><title>helmet-locked-bike</title><g id="52328a4c-0f76-4a37-bbaf-a0782e4e3b6a" data-name="Layer 2"><g id="e68ac843-04ab-4ae9-872a-77e09e992a7b" data-name="Layer 1"><path d="M15,9.7h-.3V5.1A5.87,5.87,0,0,0,8.6,0,5.79,5.79,0,0,0,2.5,5.2V9.8H2.2A2.22,2.22,0,0,0,0,12V22.7a2.22,2.22,0,0,0,2.2,2.2H15.1a2.22,2.22,0,0,0,2.2-2.2V12A2.39,2.39,0,0,0,15,9.7ZM3.9,5.2A4.34,4.34,0,0,1,8.5,1.4a4.35,4.35,0,0,1,4.6,3.7V9.7H3.9ZM15.6,22.5a.58.58,0,0,1-.6.6H2.1a.58.58,0,0,1-.6-.6V11.8a.58.58,0,0,1,.6-.6H15a.58.58,0,0,1,.6.6Z"/><path class="524e31bd-82bc-4c99-bf5f-05d057b820a0" d="M15.6,22.5a.58.58,0,0,1-.6.6H2.1a.58.58,0,0,1-.6-.6V11.8a.58.58,0,0,1,.6-.6H15a.58.58,0,0,1,.6.6Z"/><path d="M8.9,22.1a.36.36,0,0,1-.2-.3v-.4h0V21a.9.9,0,0,0-.1-.5.1.1,0,0,0-.1-.1,10.91,10.91,0,0,1-.6-1.1c-.2-.5-.4-.9-.6-1.4h0c-.1,0-.1,0-.2-.1s-.2-.1-.3-.2l-.2-.2A2.09,2.09,0,0,0,6,17c-.2-.1-.5-.2-.7-.3s-.4-.1-.6-.3l-.1-.1-.2-.2a.1.1,0,0,0-.1-.1H4.2a2.35,2.35,0,0,1-.8-.2c-.2,0-.3-.1-.5-.2l-.1-.1a1.91,1.91,0,0,1-.5-1v-.2h.1c.1,0,.2-.1.4-.1s.4-.1.6-.1.1-.1.2-.1h.1a4.33,4.33,0,0,0,.5-.1,4.87,4.87,0,0,0,1.1-.4c.1-.1.2-.1.3-.2a3.59,3.59,0,0,1,1-.7c.3-.1.7-.2,1-.3s.4-.1.7-.1a.6.6,0,0,0,.4-.1c.2,0,.5-.1.7-.1h.5a2,2,0,0,1,.8.1.6.6,0,0,1,.4.1,2,2,0,0,1,.9.5.35.35,0,0,1,.1.2h.1c.1,0,.1,0,.2.1s.3.1.5.2a2.09,2.09,0,0,1,.6.4.1.1,0,0,1,.1.1v.1c0,.1,0,.1-.1.2s-.1.1-.1.2v.1c0,.1.1.2.1.3a2.35,2.35,0,0,1,.2.8v.8h0v.2c0,.2-.1.4-.1.6a2.54,2.54,0,0,1-.2.7v.1c.1.1,0,.2,0,.3s-.1.2-.2.2-.2.2-.3.2l-.3.3a1.14,1.14,0,0,1-.6.3h-.2a.37.37,0,0,1-.3-.1l-.3-.3-.1-.1c-.1,0-.1,0-.2-.1h-.1a2828450,2828450,0,0,1-.2.2c-.1.1-.2.2-.2.3s-.1.2-.1.3-.1.3-.2.4-.1.3-.2.5-.1.3-.2.5-.1.2-.2.4-.1.2-.1.3v.2h0v.2c0,.1,0,.1-.1.1V22C9.4,22.3,9.1,22.2,8.9,22.1Zm.5-2.2h0a9.14,9.14,0,0,0,.7-1.4c.1-.2.2-.3.3-.5h0v-.1l-.2-.2-.3-.3-.2-.2c-.1-.1-.1-.1-.2,0a.6.6,0,0,0-.4.1c-.1,0-.2.1-.3.1h0A10.15,10.15,0,0,0,9.4,19.9ZM4.6,14.8H4.3l-.2.2v.1l.1.1a.76.76,0,0,0,.4.2h0l.1-.5Z"/></g></g></svg>