<svg xmlns="http://www.w3.org/2000/svg" viewBox="0 0 25.6 24.9"><title>Asset 17</title><g id="e537c77c-7a5b-4eee-a30f-81e425655707" data-name="Layer 2"><g id="56d6dbda-665d-464d-915a-d7c2cbc4e42b" data-name="Layer 1"><path d="M23.3,9.7H12.2V5.1A5.87,5.87,0,0,0,6.1,0,5.87,5.87,0,0,0,0,5.2v5.3a.79.79,0,0,0,.8.8.74.74,0,0,0,.8-.8V5.3A4.34,4.34,0,0,1,6.2,1.5a4.35,4.35,0,0,1,4.6,3.7V9.8h-.3A2.22,2.22,0,0,0,8.3,12V22.7a2.22,2.22,0,0,0,2.2,2.2H23.4a2.22,2.22,0,0,0,2.2-2.2V11.8A2.45,2.45,0,0,0,23.3,9.7Zm.6,12.9a.58.58,0,0,1-.6.6H10.4a.58.58,0,0,1-.6-.6V11.8a.58.58,0,0,1,.6-.6H23.3a.58.58,0,0,1,.6.6Z"/><path d="M21.8,13.9a8.93,8.93,0,0,0-2.6-1.2,17.65,17.65,0,0,0-2.3,0c-.4,0,.1.5.5,1.1s.3.7,0,1.1c-.2.2-.3.4-.5.5s-.4.1-.4.1l-2.1-.2s1.4.6,2,.8.5.8.4,1.6.1,1.1-.3,1.2-2,.4-2,.4a3.83,3.83,0,0,0-1.6-.8c-.6,0-.8.9-1,1.4s.3,1.2,1,1.8S14,22,14,22l7.1-1.3c.9-.4,1.5-1.8,1.6-3.5A5,5,0,0,0,21.8,13.9Zm-5.3,1.2c.3,0,.5-.3.7-.6s.2-.5-.1-.9c-.4-.6-.5-.9-1.4-.7,0,0-3.6.7-4.1.7s-.9.2-.4.6a2.29,2.29,0,0,0,1.5.6C13.6,14.9,16.2,15.1,16.5,15.1Z"/></g></g></svg>