<svg xmlns="http://www.w3.org/2000/svg" viewBox="0 0 17.3 24.9"><defs><style>.\35 8929d25-d0e9-4c71-b9ff-7d32867aa946{fill:#00aeef;}</style></defs><title>jersey-locked-bike</title><g id="dbee1759-435d-4aef-8bf7-ed81957d1dc4" data-name="Layer 2"><g id="48982842-c3d8-4b10-88ba-21c19ea35db4" data-name="Layer 1"><path d="M15,9.7h-.3V5.1A5.87,5.87,0,0,0,8.6,0,5.79,5.79,0,0,0,2.5,5.2V9.8H2.2A2.22,2.22,0,0,0,0,12V22.7a2.22,2.22,0,0,0,2.2,2.2H15.1a2.22,2.22,0,0,0,2.2-2.2V12A2.32,2.32,0,0,0,15,9.7ZM3.9,5.2A4.34,4.34,0,0,1,8.5,1.4a4.35,4.35,0,0,1,4.6,3.7V9.7H3.8ZM15.7,22.5a.58.58,0,0,1-.6.6H2.2a.58.58,0,0,1-.6-.6V11.8a.58.58,0,0,1,.6-.6H15.1a.58.58,0,0,1,.6.6Z"/><path class="58929d25-d0e9-4c71-b9ff-7d32867aa946" d="M15.7,22.5a.58.58,0,0,1-.6.6H2.2a.58.58,0,0,1-.6-.6V11.8a.58.58,0,0,1,.6-.6H15.1a.58.58,0,0,1,.6.6Z"/><path d="M14.7,17.1c-.4-.4-2-2.7-2.3-2.9s-.4-.6-.9-.8a5.65,5.65,0,0,1-1.6-.9c-.1-.2-.2-.3-1.1-.3s-1,.2-1.1.3a10.06,10.06,0,0,1-1.6.9,1.8,1.8,0,0,0-.9.8c-.2.3-1.9,2.5-2.3,2.9s-.1.7,0,1.1.5,3.2.5,3.6.7,0,1.2,0,.3-.4.3-.6-.4-1.9-.5-2.5a1.49,1.49,0,0,1,0-.8s1-1,1.2-1.3.2.5.3,1.6a19,19,0,0,1,0,3.4c-.1.5.2.6.2.6h5s.3,0,.2-.6a19.07,19.07,0,0,1,0-3.4c.1-1.1.1-1.9.3-1.6s1.2,1.3,1.2,1.3a1.49,1.49,0,0,1,0,.8c-.1.6-.4,2.2-.5,2.5s-.2.6.3.6,1.1.4,1.2,0,.4-3.2.5-3.6S15,17.5,14.7,17.1ZM8.8,13.5c-.6,0-1-.2-1-.5s.5-.5,1-.5,1,.2,1,.5S9.4,13.5,8.8,13.5Z"/></g></g></svg>