<svg xmlns="http://www.w3.org/2000/svg" viewBox="0 0 25.6 24.9"><title>Asset 18</title><g id="e251c345-15ed-4d78-b73e-dc0af25568fb" data-name="Layer 2"><g id="208c13c0-b0e4-49bf-8e76-a7d11e00d5ab" data-name="Layer 1"><path d="M23.3,9.7H12.2V5.1A5.87,5.87,0,0,0,6.1,0,5.87,5.87,0,0,0,0,5.2v5.3a.79.79,0,0,0,.8.8.74.74,0,0,0,.8-.8V5.3A4.34,4.34,0,0,1,6.2,1.5a4.35,4.35,0,0,1,4.6,3.7V9.8h-.3A2.22,2.22,0,0,0,8.3,12V22.7a2.22,2.22,0,0,0,2.2,2.2H23.4a2.22,2.22,0,0,0,2.2-2.2V11.8A2.45,2.45,0,0,0,23.3,9.7Zm.6,12.9a.58.58,0,0,1-.6.6H10.4a.58.58,0,0,1-.6-.6V11.8a.58.58,0,0,1,.6-.6H23.3a.58.58,0,0,1,.6.6Z"/><path d="M22.9,17.1c-.4-.4-2-2.7-2.3-2.9s-.4-.6-.9-.8a5.65,5.65,0,0,1-1.6-.9c-.1-.2-.2-.3-1.1-.3s-1,.2-1.1.3a10.06,10.06,0,0,1-1.6.9,1.8,1.8,0,0,0-.9.8c-.2.3-1.9,2.5-2.3,2.9s-.1.7,0,1.1.5,3.2.5,3.6.7,0,1.2,0,.3-.4.3-.6-.4-1.9-.5-2.5a1.49,1.49,0,0,1,0-.8s1-1,1.2-1.3.2.5.3,1.6a19,19,0,0,1,0,3.4c-.1.5.2.6.2.6h5s.3,0,.2-.6a19.07,19.07,0,0,1,0-3.4c.1-1.1.1-1.9.3-1.6S21,17.9,21,17.9a1.49,1.49,0,0,1,0,.8c-.1.6-.4,2.2-.5,2.5s-.2.6.3.6,1.1.4,1.2,0,.4-3.2.5-3.6S23.3,17.5,22.9,17.1Zm-5.8-3.6c-.6,0-1-.2-1-.5s.5-.5,1-.5,1,.2,1,.5S17.6,13.5,17.1,13.5Z"/></g></g></svg>