<svg xmlns="http://www.w3.org/2000/svg" viewBox="0 0 17.3 24.9"><defs><style>.\33 f23e1b1-f73b-428c-be27-a621b2a8f80f{fill:#00aeef;}</style></defs><title>pant-locked-bike</title><g id="e5302d6c-db9c-40fc-b96b-410ad6ea7d84" data-name="Layer 2"><g id="6a61c07c-c967-46f8-a4bd-7eba70bb76dc" data-name="Layer 1"><path d="M15,9.7h-.3V5.1A5.87,5.87,0,0,0,8.6,0,5.79,5.79,0,0,0,2.5,5.2V9.8H2.2A2.22,2.22,0,0,0,0,12V22.7a2.22,2.22,0,0,0,2.2,2.2H15.1a2.22,2.22,0,0,0,2.2-2.2V12A2.46,2.46,0,0,0,15,9.7ZM3.8,5.2A4.34,4.34,0,0,1,8.4,1.4,4.35,4.35,0,0,1,13,5.1V9.7H3.7ZM15.6,22.5a.58.58,0,0,1-.6.6H2.1a.58.58,0,0,1-.6-.6V11.8a.58.58,0,0,1,.6-.6H15a.58.58,0,0,1,.6.6Z"/><path class="3f23e1b1-f73b-428c-be27-a621b2a8f80f" d="M15.6,22.5a.58.58,0,0,1-.6.6H2.1a.58.58,0,0,1-.6-.6V11.8a.58.58,0,0,1,.6-.6H15a.58.58,0,0,1,.6.6Z"/><path d="M11,17.6a33.25,33.25,0,0,0-.1-3.4c0-.3-.1-.4-.1-.6s.1-1,0-1.1-.3-.5-1.4-.5H7.6c-1.1,0-1.3.4-1.4.5s0,.8,0,1.1-.1.4-.1.6,0,2.6-.1,3.4a4.61,4.61,0,0,0,.1,1.8,12.14,12.14,0,0,1,.2,2.3c.1.8.2.7.3.7s.6-.1.8-.1.3,0,.3-.2,0-2.5.1-3.3.1-.8.1-1.4.2-.7.2-.9a5.7,5.7,0,0,1,.1-1.3c0-.2.3-.2.3-.2h0a.36.36,0,0,1,.3.2,5.7,5.7,0,0,0,.1,1.3,1.44,1.44,0,0,1,.2.9c0,.6.1.6.1,1.4s.1,3.2.1,3.3.1.2.3.2.7.1.8.1.2.1.3-.7.1-2,.2-2.3A8.67,8.67,0,0,0,11,17.6ZM8.5,12.5a4.4,4.4,0,0,1-1.8-.2,5.83,5.83,0,0,1,1.8-.1,5.83,5.83,0,0,1,1.8.1A4.4,4.4,0,0,1,8.5,12.5Z"/></g></g></svg>