<svg xmlns="http://www.w3.org/2000/svg" viewBox="0 0 17.3 24.9"><defs><style>.\36 35fad19-2c82-4e08-861d-56c87abf54ff{fill:#ff2400;}</style></defs><title>Asset 11</title><g id="e5da6955-d317-4051-b70d-6e8541754a6d" data-name="Layer 2"><g id="b2ee3b74-7558-49c8-8c6e-ea1c0be65a09" data-name="Layer 1"><path d="M15,9.7h-.3V5.1A5.87,5.87,0,0,0,8.6,0,5.79,5.79,0,0,0,2.5,5.2V9.8H2.2A2.22,2.22,0,0,0,0,12V22.7a2.22,2.22,0,0,0,2.2,2.2H15.1a2.22,2.22,0,0,0,2.2-2.2V12A2.55,2.55,0,0,0,15,9.7ZM3.9,5.2A4.34,4.34,0,0,1,8.5,1.4a4.35,4.35,0,0,1,4.6,3.7V9.7H3.8ZM15.6,22.6a.58.58,0,0,1-.6.6H2.1a.58.58,0,0,1-.6-.6V11.9a.58.58,0,0,1,.6-.6H15a.58.58,0,0,1,.6.6Z"/><path class="635fad19-2c82-4e08-861d-56c87abf54ff" d="M15.6,22.6a.58.58,0,0,1-.6.6H2.1a.58.58,0,0,1-.6-.6V11.9a.58.58,0,0,1,.6-.6H15a.58.58,0,0,1,.6.6Z"/><path d="M11,17.6a33.25,33.25,0,0,0-.1-3.4c0-.3-.1-.4-.1-.6s.1-1,0-1.1-.3-.5-1.4-.5H7.6c-1.1,0-1.3.4-1.4.5s0,.8,0,1.1-.1.4-.1.6,0,2.6-.1,3.4a4.61,4.61,0,0,0,.1,1.8,12.14,12.14,0,0,1,.2,2.3c.1.8.2.7.3.7s.6-.1.8-.1.3,0,.3-.2,0-2.5.1-3.3.1-.8.1-1.4.2-.7.2-.9a5.7,5.7,0,0,1,.1-1.3c0-.2.3-.2.3-.2h0a.36.36,0,0,1,.3.2,5.7,5.7,0,0,0,.1,1.3,1.44,1.44,0,0,1,.2.9c0,.6.1.6.1,1.4s.1,3.2.1,3.3.1.2.3.2.7.1.8.1.2.1.3-.7.1-2,.2-2.3A8.16,8.16,0,0,0,11,17.6Zm-2.5-5a4.4,4.4,0,0,1-1.8-.2,5.83,5.83,0,0,1,1.8-.1,5.83,5.83,0,0,1,1.8.1A4.4,4.4,0,0,1,8.5,12.6Z"/></g></g></svg>