<svg xmlns="http://www.w3.org/2000/svg" viewBox="0 0 25.6 24.9"><title>Asset 19</title><g id="cd6c03a3-045c-4583-9f24-128286bbdc8b" data-name="Layer 2"><g id="ad92a5d0-0b19-4471-9be1-a194c93211ad" data-name="Layer 1"><path d="M23.3,9.7H12.2V5.1A5.87,5.87,0,0,0,6.1,0,5.87,5.87,0,0,0,0,5.2v5.3a.79.79,0,0,0,.8.8.74.74,0,0,0,.8-.8V5.3A4.34,4.34,0,0,1,6.2,1.5a4.35,4.35,0,0,1,4.6,3.7V9.8h-.3A2.22,2.22,0,0,0,8.3,12V22.7a2.22,2.22,0,0,0,2.2,2.2H23.4a2.22,2.22,0,0,0,2.2-2.2V11.8A2.54,2.54,0,0,0,23.3,9.7Zm.6,12.9a.58.58,0,0,1-.6.6H10.4a.58.58,0,0,1-.6-.6V11.8a.58.58,0,0,1,.6-.6H23.3a.58.58,0,0,1,.6.6Z"/><path d="M19.3,17.6a33.25,33.25,0,0,0-.1-3.4c0-.3-.1-.4-.1-.6s.1-1,0-1.1-.3-.5-1.4-.5H15.9c-1.1,0-1.3.4-1.4.5s0,.8,0,1.1-.1.4-.1.6,0,2.6-.1,3.4a4.61,4.61,0,0,0,.1,1.8,12.14,12.14,0,0,1,.2,2.3c.1.8.2.7.3.7s.6-.1.8-.1.3,0,.3-.2,0-2.5.1-3.3.1-.8.1-1.4.2-.7.2-.9a5.7,5.7,0,0,1,.1-1.3c0-.2.3-.2.3-.2h0a.36.36,0,0,1,.3.2,5.7,5.7,0,0,0,.1,1.3,1.44,1.44,0,0,1,.2.9c0,.6.1.6.1,1.4s.1,3.2.1,3.3.1.2.3.2.7.1.8.1.2.1.3-.7.1-2,.2-2.3A8.16,8.16,0,0,0,19.3,17.6Zm-2.5-5a4.4,4.4,0,0,1-1.8-.2,5.83,5.83,0,0,1,1.8-.1,5.83,5.83,0,0,1,1.8.1A4.4,4.4,0,0,1,16.8,12.6Z"/></g></g></svg>