<svg id="bc86a1b4-9c57-404c-8dd8-d509fb76c04a" data-name="Layer 1" xmlns="http://www.w3.org/2000/svg" viewBox="0 0 266.4 57.6"><defs><style>.\34 3cfc073-603e-4af8-8128-23fa6d87cf0d{fill:#020202;}.\36 05f9fac-dfa4-484d-a9a8-02f7c270ccb6{isolation:isolate;}.\36 3243c10-602d-43aa-bca7-085ac5444404{fill:red;}.aedffbee-a8ab-4bad-ae72-664a4bd6d646{fill:#fff;}.\31 d284abc-17a2-42d2-bd72-8861a6f5d30c{fill:#bbbdbf;}</style></defs><title>unlock</title><rect class="43cfc073-603e-4af8-8128-23fa6d87cf0d" width="266.4" height="57.6"/><g class="605f9fac-dfa4-484d-a9a8-02f7c270ccb6"><path class="63243c10-602d-43aa-bca7-085ac5444404" d="M27.58,26.18A3.38,3.38,0,0,0,26,25a5.13,5.13,0,0,0-3.93.05,4.9,4.9,0,0,0-1.62,1.15,5.11,5.11,0,0,0-1,1.72,6.06,6.06,0,0,0-.37,2.13,6.6,6.6,0,0,0,.36,2.22,5,5,0,0,0,1,1.73A4.55,4.55,0,0,0,22,35.14a5.18,5.18,0,0,0,2.07.4,4.58,4.58,0,0,0,2.11-.47,4.14,4.14,0,0,0,1.49-1.25l2.11,1.49a6.77,6.77,0,0,1-2.41,1.92,7.65,7.65,0,0,1-3.33.68,8.6,8.6,0,0,1-3.19-.58,7.21,7.21,0,0,1-4.13-4.08,8.3,8.3,0,0,1-.59-3.17,8,8,0,0,1,.62-3.21,7.16,7.16,0,0,1,1.7-2.44A7.54,7.54,0,0,1,21,22.88a9.07,9.07,0,0,1,3.18-.54,8.59,8.59,0,0,1,1.49.14,7.56,7.56,0,0,1,1.49.42,7.19,7.19,0,0,1,1.34.7,4.32,4.32,0,0,1,1.07,1Z"/><path class="63243c10-602d-43aa-bca7-085ac5444404" d="M31.45,22.71h2.64V35.18h6.3v2.34H31.45Z"/><path class="63243c10-602d-43aa-bca7-085ac5444404" d="M42.14,22.71h2.64V37.53H42.14Z"/><path class="63243c10-602d-43aa-bca7-085ac5444404" d="M58.74,26.18A3.38,3.38,0,0,0,57.21,25a5.13,5.13,0,0,0-3.93.05,4.9,4.9,0,0,0-1.62,1.15,5.11,5.11,0,0,0-1,1.72,6.06,6.06,0,0,0-.37,2.13,6.6,6.6,0,0,0,.36,2.22,5,5,0,0,0,1,1.73,4.55,4.55,0,0,0,1.58,1.12,5.18,5.18,0,0,0,2.07.4,4.58,4.58,0,0,0,2.11-.47,4.14,4.14,0,0,0,1.49-1.25L61,35.31a6.77,6.77,0,0,1-2.41,1.92,7.65,7.65,0,0,1-3.33.68,8.6,8.6,0,0,1-3.19-.58,7.21,7.21,0,0,1-4.13-4.08,8.3,8.3,0,0,1-.59-3.17,8,8,0,0,1,.62-3.21,7.16,7.16,0,0,1,1.7-2.44,7.54,7.54,0,0,1,2.54-1.55,9.07,9.07,0,0,1,3.18-.54,8.59,8.59,0,0,1,1.49.14,7.56,7.56,0,0,1,1.49.42,7.19,7.19,0,0,1,1.34.7,4.32,4.32,0,0,1,1.07,1Z"/><path class="63243c10-602d-43aa-bca7-085ac5444404" d="M62.61,22.71h2.64v6.4h.06l6.19-6.4h3.56l-6.93,6.84,7.39,8h-3.7L65.31,30.1h-.06v7.43H62.61Z"/><path class="63243c10-602d-43aa-bca7-085ac5444404" d="M84.5,25H80v-2.3H91.68V25H87.14V37.53H84.5Z"/><path class="63243c10-602d-43aa-bca7-085ac5444404" d="M92.06,30.08a8.29,8.29,0,0,1,.6-3.21,7.06,7.06,0,0,1,1.65-2.44,7.33,7.33,0,0,1,2.51-1.55,9,9,0,0,1,3.17-.54,9.14,9.14,0,0,1,3.2.54,7.44,7.44,0,0,1,2.53,1.55,7,7,0,0,1,1.66,2.44,8.29,8.29,0,0,1,.6,3.21,8.17,8.17,0,0,1-.6,3.17,7.31,7.31,0,0,1-1.66,2.47,7.55,7.55,0,0,1-2.53,1.61,8.68,8.68,0,0,1-3.2.58,8.54,8.54,0,0,1-3.17-.58,7.31,7.31,0,0,1-4.17-4.08A8.17,8.17,0,0,1,92.06,30.08Zm2.87,0a6.28,6.28,0,0,0,.37,2.19,5.09,5.09,0,0,0,1,1.73,4.8,4.8,0,0,0,1.61,1.14,5.08,5.08,0,0,0,2.06.41,5.15,5.15,0,0,0,2.07-.41A4.78,4.78,0,0,0,103.7,34a5.09,5.09,0,0,0,1-1.73,6.28,6.28,0,0,0,.37-2.19,6.07,6.07,0,0,0-.37-2.13,5.21,5.21,0,0,0-1-1.72,4.8,4.8,0,0,0-1.61-1.15,5.09,5.09,0,0,0-2.09-.42,5,5,0,0,0-2.08.42,4.82,4.82,0,0,0-1.6,1.15,5.21,5.21,0,0,0-1,1.72A6.07,6.07,0,0,0,94.92,30.08Z"/></g><g class="605f9fac-dfa4-484d-a9a8-02f7c270ccb6"><g class="605f9fac-dfa4-484d-a9a8-02f7c270ccb6"><path class="aedffbee-a8ab-4bad-ae72-664a4bd6d646" d="M131,41.43V45.5h-2.32V41.43L125,35.89h2.81l2.05,3.56L132,35.89h2.72Z"/><path class="aedffbee-a8ab-4bad-ae72-664a4bd6d646" d="M145,40.65a5.37,5.37,0,0,1-.39,2.09,4.74,4.74,0,0,1-1.09,1.62,4.87,4.87,0,0,1-1.66,1,6.14,6.14,0,0,1-4.18,0,4.87,4.87,0,0,1-1.66-1,4.74,4.74,0,0,1-1.09-1.62,5.37,5.37,0,0,1-.39-2.09,5.3,5.3,0,0,1,.39-2.08A4.56,4.56,0,0,1,136,37a4.86,4.86,0,0,1,1.66-1,6.35,6.35,0,0,1,4.18,0,4.87,4.87,0,0,1,1.66,1,4.56,4.56,0,0,1,1.09,1.58A5.3,5.3,0,0,1,145,40.65Zm-2.49,0a3.3,3.3,0,0,0-.2-1.17,2.77,2.77,0,0,0-.56-.93,2.62,2.62,0,0,0-.87-.61,2.76,2.76,0,0,0-1.12-.22,2.68,2.68,0,0,0-2,.84,2.65,2.65,0,0,0-.56.93,3.39,3.39,0,0,0-.2,1.17,3.44,3.44,0,0,0,.2,1.2,2.84,2.84,0,0,0,.56.94,2.55,2.55,0,0,0,.86.62,2.87,2.87,0,0,0,2.23,0,2.63,2.63,0,0,0,.87-.62,2.77,2.77,0,0,0,.57-.94A3.44,3.44,0,0,0,142.5,40.65Z"/><path class="aedffbee-a8ab-4bad-ae72-664a4bd6d646" d="M154.38,43.46a3.44,3.44,0,0,1-.84,1.22,3.85,3.85,0,0,1-1.31.79,5.26,5.26,0,0,1-3.42,0,3.72,3.72,0,0,1-1.29-.79,3.46,3.46,0,0,1-.82-1.22,4.24,4.24,0,0,1-.29-1.58v-6h2.31v5.8a2.67,2.67,0,0,0,.1.75,1.9,1.9,0,0,0,.31.63,1.47,1.47,0,0,0,.56.44,2.22,2.22,0,0,0,1.67,0,1.51,1.51,0,0,0,.56-.44,1.73,1.73,0,0,0,.31-.63,2.82,2.82,0,0,0,.1-.75v-5.8h2.32v6A4.15,4.15,0,0,1,154.38,43.46Z"/><path class="aedffbee-a8ab-4bad-ae72-664a4bd6d646" d="M161.7,45.5l-2.09-3.82h-.79V45.5h-2.27V35.89h3.67a6.39,6.39,0,0,1,1.35.14,3.53,3.53,0,0,1,1.18.48,2.53,2.53,0,0,1,.83.9,2.81,2.81,0,0,1,.31,1.39,2.56,2.56,0,0,1-.53,1.64,2.89,2.89,0,0,1-1.47,1l2.51,4.12Zm-.1-6.67a1,1,0,0,0-.14-.55,1,1,0,0,0-.37-.33,1.61,1.61,0,0,0-.51-.16,3.72,3.72,0,0,0-.54,0H158.8V40h1.11a3.83,3.83,0,0,0,.59,0,1.9,1.9,0,0,0,.54-.17,1,1,0,0,0,.56-1Z"/></g><g class="605f9fac-dfa4-484d-a9a8-02f7c270ccb6"><path class="aedffbee-a8ab-4bad-ae72-664a4bd6d646" d="M173,43.94a4,4,0,0,1-.59.69,3.83,3.83,0,0,1-.8.58,4.45,4.45,0,0,1-1,.39,4.71,4.71,0,0,1-1.2.14,5.24,5.24,0,0,1-2-.38,4.69,4.69,0,0,1-2.63-2.65,5.35,5.35,0,0,1-.37-2,5.26,5.26,0,0,1,.38-2A4.78,4.78,0,0,1,167.4,36a5.15,5.15,0,0,1,2-.38,4.91,4.91,0,0,1,1,.11,4.82,4.82,0,0,1,1,.31,4.12,4.12,0,0,1,.82.48,2.82,2.82,0,0,1,.61.63l-.82.6a2.45,2.45,0,0,0-.4-.46,2.71,2.71,0,0,0-.59-.41,3.69,3.69,0,0,0-.74-.29,3.29,3.29,0,0,0-.86-.11,4,4,0,0,0-1.68.34,3.76,3.76,0,0,0-1.26.91,4,4,0,0,0-.79,1.33,4.69,4.69,0,0,0-.27,1.6,4.61,4.61,0,0,0,.28,1.6,4.08,4.08,0,0,0,.79,1.33,3.76,3.76,0,0,0,1.26.91,3.94,3.94,0,0,0,1.66.34,3.77,3.77,0,0,0,1.58-.34,3,3,0,0,0,1.25-1.09Z"/><path class="aedffbee-a8ab-4bad-ae72-664a4bd6d646" d="M184,40.7a5.26,5.26,0,0,1-.38,2A4.77,4.77,0,0,1,181,45.37a5.41,5.41,0,0,1-4,0,4.78,4.78,0,0,1-2.64-2.65,5.58,5.58,0,0,1,0-4A4.79,4.79,0,0,1,177,36a5.41,5.41,0,0,1,4,0,4.78,4.78,0,0,1,2.64,2.65A5.26,5.26,0,0,1,184,40.7Zm-1,0a4.71,4.71,0,0,0-.27-1.6,4,4,0,0,0-.79-1.34,3.78,3.78,0,0,0-1.26-.92,4.25,4.25,0,0,0-3.33,0,3.78,3.78,0,0,0-1.26.92,4,4,0,0,0-.79,1.34,4.85,4.85,0,0,0,0,3.2,3.94,3.94,0,0,0,.79,1.33,3.84,3.84,0,0,0,1.26.91,4.26,4.26,0,0,0,3.33,0,3.84,3.84,0,0,0,1.26-.91,3.92,3.92,0,0,0,.79-1.33A4.7,4.7,0,0,0,183,40.7Z"/><path class="aedffbee-a8ab-4bad-ae72-664a4bd6d646" d="M190.81,43.85h0l3.22-8h1.5V45.5h-1V37.15h0l-3.48,8.36h-.52l-3.48-8.36h0V45.5h-1V35.89h1.49Z"/><path class="aedffbee-a8ab-4bad-ae72-664a4bd6d646" d="M198.09,35.89H201a5.47,5.47,0,0,1,1.1.12,3,3,0,0,1,1,.39,2.17,2.17,0,0,1,.72.75,2.34,2.34,0,0,1,.28,1.2,2,2,0,0,1-.46,1.33,2.18,2.18,0,0,1-1.24.74v0a2.53,2.53,0,0,1,1.55.73,2.27,2.27,0,0,1,.62,1.68,2.39,2.39,0,0,1-.25,1.09,2.42,2.42,0,0,1-.71.84,3.44,3.44,0,0,1-1.13.54,5.4,5.4,0,0,1-1.49.19h-2.85Zm1,4.21h2a3.2,3.2,0,0,0,.71-.08,2,2,0,0,0,.66-.28,1.49,1.49,0,0,0,.48-.52,1.62,1.62,0,0,0,.18-.8,1.55,1.55,0,0,0-.18-.78,1.52,1.52,0,0,0-.5-.52,2.15,2.15,0,0,0-.73-.29,4.39,4.39,0,0,0-.9-.09h-1.7Zm0,4.56h1.82a4.85,4.85,0,0,0,1-.1,2.59,2.59,0,0,0,.84-.33,1.73,1.73,0,0,0,.58-.58,1.86,1.86,0,0,0-.43-2.28,3.07,3.07,0,0,0-1.83-.47h-2Z"/><path class="aedffbee-a8ab-4bad-ae72-664a4bd6d646" d="M207.71,45.5h-1V35.89h1Z"/><path class="aedffbee-a8ab-4bad-ae72-664a4bd6d646" d="M217.09,44.08h0V35.89h1V45.5h-1.22l-5.6-8.27h0V45.5h-1V35.89h1.22Z"/><path class="aedffbee-a8ab-4bad-ae72-664a4bd6d646" d="M220.58,45.5H219.5l4.16-9.62h1l4.13,9.62h-1.09L226.6,43h-5ZM222,42.08h4.24L224.11,37Z"/><path class="aedffbee-a8ab-4bad-ae72-664a4bd6d646" d="M232.43,45.5h-1V36.76h-3.22v-.87h7.42v.87h-3.22Z"/><path class="aedffbee-a8ab-4bad-ae72-664a4bd6d646" d="M238.06,45.5h-1V35.89h1Z"/><path class="aedffbee-a8ab-4bad-ae72-664a4bd6d646" d="M250.13,40.7a5.26,5.26,0,0,1-.38,2,4.77,4.77,0,0,1-2.64,2.65,5.41,5.41,0,0,1-4,0,4.78,4.78,0,0,1-2.64-2.65,5.58,5.58,0,0,1,0-4A4.79,4.79,0,0,1,243.12,36a5.41,5.41,0,0,1,4,0,4.78,4.78,0,0,1,2.64,2.65A5.26,5.26,0,0,1,250.13,40.7Zm-1,0a4.71,4.71,0,0,0-.27-1.6,4,4,0,0,0-.79-1.34,3.78,3.78,0,0,0-1.26-.92,4.25,4.25,0,0,0-3.33,0,3.78,3.78,0,0,0-1.26.92,4,4,0,0,0-.79,1.34,4.85,4.85,0,0,0,0,3.2,3.94,3.94,0,0,0,.79,1.33,3.84,3.84,0,0,0,1.26.91,4.26,4.26,0,0,0,3.33,0,3.84,3.84,0,0,0,1.26-.91,3.92,3.92,0,0,0,.79-1.33A4.7,4.7,0,0,0,249.1,40.7Z"/><path class="aedffbee-a8ab-4bad-ae72-664a4bd6d646" d="M259,44.08h0V35.89h1V45.5h-1.22l-5.6-8.27h0V45.5h-1V35.89h1.22Z"/></g></g><polygon class="1d284abc-17a2-42d2-bd72-8861a6f5d30c" points="157.1 27.3 160.8 33.3 168.7 33.3 168.7 25.6 157.1 27.3"/><path class="1d284abc-17a2-42d2-bd72-8861a6f5d30c" d="M230.6,16.6l-.8.1a1.38,1.38,0,0,1,.3.4Z"/><polygon class="1d284abc-17a2-42d2-bd72-8861a6f5d30c" points="146 28.9 146 33.3 151.8 33.3 151.8 28.1 146 28.9"/><path class="1d284abc-17a2-42d2-bd72-8861a6f5d30c" d="M143.6,29.6c0-.1.1-.2.1-.4L125,31.9c.2.3.5.5.7.8a2.65,2.65,0,0,0,.6.5h14.4c.2-.2.4-.3.6-.5A6.52,6.52,0,0,0,143.6,29.6Z"/><path class="1d284abc-17a2-42d2-bd72-8861a6f5d30c" d="M209.5,27.7a13.17,13.17,0,0,0,1-5.3h0v-.1a12.65,12.65,0,0,0-.3-2.8l-6.4.9a11.08,11.08,0,0,1,.2,1.9v.1h0a9.43,9.43,0,0,1-.5,3,7,7,0,0,1-1.5,2.5,6.34,6.34,0,0,1-2.3,1.6,4.87,4.87,0,0,1-1.1.4v3.4h6.3a11.51,11.51,0,0,0,1.7-1.4A11.67,11.67,0,0,0,209.5,27.7Z"/><polygon class="1d284abc-17a2-42d2-bd72-8861a6f5d30c" points="248 22.4 247.2 21.5 255.1 13 246.6 14.2 241.4 20.1 241.3 20.1 241.3 15 235.4 15.8 235.4 22.4 235.4 33.3 241.3 33.3 241.3 23.4 241.4 23.4 249.4 33.3 257.2 33.3 248 22.4"/><path class="1d284abc-17a2-42d2-bd72-8861a6f5d30c" d="M194,29.5a6,6,0,0,1-2.2-1.6,8.74,8.74,0,0,1-1.5-2.5,9.29,9.29,0,0,1-.5-2.9l-6.4.9a12.3,12.3,0,0,0,1,4.3,11.4,11.4,0,0,0,1,1.9h-8.7V24.4l-6.1.9v8h23.8V29.6C194.2,29.6,194.1,29.6,194,29.5Z"/><path class="1d284abc-17a2-42d2-bd72-8861a6f5d30c" d="M234.4,31.5l-4.2-4a4.89,4.89,0,0,1-2.2,1.8,7.45,7.45,0,0,1-3.1.7,7.17,7.17,0,0,1-2.9-.6,6,6,0,0,1-2.2-1.6,9.74,9.74,0,0,1-1.5-2.4,10.07,10.07,0,0,1-.5-3.1h0a10.59,10.59,0,0,1,.5-3.1,3.7,3.7,0,0,1,.5-1.1l-7.3,1.1a15.53,15.53,0,0,0-.3,3.1h0a13.17,13.17,0,0,0,1,5.3,13.43,13.43,0,0,0,2.8,4.2,11.51,11.51,0,0,0,1.7,1.4h15.5A6.2,6.2,0,0,0,234.4,31.5Z"/><path class="aedffbee-a8ab-4bad-ae72-664a4bd6d646" d="M202,16.9a9.74,9.74,0,0,1,1.5,2.4c.1.4.2.8.3,1.1l6.4-.9a11.22,11.22,0,0,0-.8-2.6,12,12,0,0,0-2.8-4.1A12,12,0,0,0,204,11h-5.4v3.9a5.64,5.64,0,0,1,1.2.4A6,6,0,0,1,202,16.9Z"/><path class="aedffbee-a8ab-4bad-ae72-664a4bd6d646" d="M218.9,18.3a6.42,6.42,0,0,1,1-1.3,6.34,6.34,0,0,1,2.3-1.6,7.17,7.17,0,0,1,2.9-.6,6.71,6.71,0,0,1,2.8.6,5.33,5.33,0,0,1,1.9,1.3l.8-.1,3.6-3.6a10,10,0,0,0-2.5-2H217.8a15.1,15.1,0,0,0-2.6,1.8,12.19,12.19,0,0,0-2.9,4.1,8.78,8.78,0,0,0-.7,2.3Z"/><polygon class="aedffbee-a8ab-4bad-ae72-664a4bd6d646" points="241.3 15 241.3 11 235.4 11 235.4 15.8 241.3 15"/><polygon class="aedffbee-a8ab-4bad-ae72-664a4bd6d646" points="255.1 13 257 11 249.5 11 246.6 14.2 255.1 13"/><polygon class="aedffbee-a8ab-4bad-ae72-664a4bd6d646" points="151.8 28.1 151.7 22.5 151.7 22.5 151.7 18.7 151.8 18.7 154.1 22.5 154.2 22.5 157.1 27.3 168.7 25.6 168.7 22.5 168.7 11 162.9 11 163 22.5 163 22.5 163 26.3 162.9 26.3 160.5 22.5 160.5 22.5 153.5 11 146 11 146 22.5 146 28.9 151.8 28.1"/><path class="aedffbee-a8ab-4bad-ae72-664a4bd6d646" d="M183.3,22.4v1l6.4-.9v-.1h0v-.1a9.43,9.43,0,0,1,.5-3,6.08,6.08,0,0,1,1.5-2.4,6.34,6.34,0,0,1,2.3-1.6.6.6,0,0,1,.4-.1V11h-4.6a15.1,15.1,0,0,0-2.6,1.8,10.71,10.71,0,0,0-2.8,4.1,12.59,12.59,0,0,0-1.1,5.5Z"/><path class="aedffbee-a8ab-4bad-ae72-664a4bd6d646" d="M125,32l18.7-2.7a11.22,11.22,0,0,0,.6-3.8V11h-6V25a11.08,11.08,0,0,1-.2,1.9,4,4,0,0,1-.8,1.6,3.27,3.27,0,0,1-1.5,1.1,4.81,4.81,0,0,1-2.2.4,5.09,5.09,0,0,1-2.2-.4,4,4,0,0,1-1.4-1.1,4.81,4.81,0,0,1-.8-1.6,6.28,6.28,0,0,1-.3-1.9V11h-6V25.5a10.7,10.7,0,0,0,.7,4.1A13.77,13.77,0,0,0,125,32Z"/><polygon class="aedffbee-a8ab-4bad-ae72-664a4bd6d646" points="176.6 24.5 176.6 22.4 176.6 11 170.5 11 170.5 22.4 170.5 25.3 176.6 24.5"/></svg>