<svg id="d415ac01-60f6-4f1f-baf2-ee1e27c06892" data-name="Layer 1" xmlns="http://www.w3.org/2000/svg" viewBox="0 0 73.51 30.3"><defs><style>.ac441fcf-58b0-4771-827f-958d9f5fc3a2{fill:#ff2400;}</style></defs><title>unlock-logo</title><path d="M27.3,28.78v1.43h-.81V28.78l-1.26-1.94h1l.72,1.24.72-1.24h1Z" transform="translate(0 0)"/><path d="M32.08,28.51a1.88,1.88,0,0,1-.14.73,1.67,1.67,0,0,1-.38.57,1.7,1.7,0,0,1-.58.36,2.14,2.14,0,0,1-1.46,0,1.7,1.7,0,0,1-.58-.36,1.66,1.66,0,0,1-.38-.57,1.88,1.88,0,0,1-.14-.73,1.85,1.85,0,0,1,.14-.73,1.6,1.6,0,0,1,.38-.55,1.71,1.71,0,0,1,.58-.35,2.22,2.22,0,0,1,1.46,0,1.71,1.71,0,0,1,.58.35,1.61,1.61,0,0,1,.38.55A1.85,1.85,0,0,1,32.08,28.51Zm-.87,0a1.14,1.14,0,0,0-.07-.41,1,1,0,0,0-.2-.33.91.91,0,0,0-.3-.21,1,1,0,0,0-.39-.08.94.94,0,0,0-.69.29.93.93,0,0,0-.2.33,1.26,1.26,0,0,0,0,.83,1,1,0,0,0,.2.33.9.9,0,0,0,.3.22,1,1,0,0,0,.78,0,.93.93,0,0,0,.3-.22,1,1,0,0,0,.2-.33A1.19,1.19,0,0,0,31.21,28.51Z" transform="translate(0 0)"/><path d="M35.24,29.49a1.2,1.2,0,0,1-.29.43,1.34,1.34,0,0,1-.46.28,1.84,1.84,0,0,1-1.2,0,1.31,1.31,0,0,1-.45-.28,1.21,1.21,0,0,1-.29-.43,1.48,1.48,0,0,1-.1-.55v-2.1h.81v2a.92.92,0,0,0,0,.26.65.65,0,0,0,.11.22.51.51,0,0,0,.19.15.78.78,0,0,0,.58,0,.53.53,0,0,0,.2-.15.6.6,0,0,0,.11-.22,1,1,0,0,0,0-.26v-2h.81v2.1A1.46,1.46,0,0,1,35.24,29.49Z" transform="translate(0 0)"/><path d="M37.68,30.21,37,28.87h-.28v1.34h-.79V26.85h1.28a2.24,2.24,0,0,1,.47,0,1.23,1.23,0,0,1,.41.17.87.87,0,0,1,.29.31,1,1,0,0,1,.11.48.89.89,0,0,1-.19.58,1,1,0,0,1-.51.33l.88,1.44Zm0-2.33a.34.34,0,0,0,0-.19.36.36,0,0,0-.13-.11.56.56,0,0,0-.18-.05h-.62v.78h.39l.21,0a.66.66,0,0,0,.19-.06.37.37,0,0,0,.14-.12A.37.37,0,0,0,37.65,27.88Z" transform="translate(0 0)"/><path d="M41.85,29.66a1.39,1.39,0,0,1-.21.24,1.33,1.33,0,0,1-.28.2,1.54,1.54,0,0,1-.35.14,1.65,1.65,0,0,1-.42.05,1.83,1.83,0,0,1-.7-.13,1.64,1.64,0,0,1-.92-.93,1.87,1.87,0,0,1-.13-.71,1.84,1.84,0,0,1,.13-.71,1.67,1.67,0,0,1,.37-.56,1.69,1.69,0,0,1,.56-.37,1.8,1.8,0,0,1,.7-.13,1.71,1.71,0,0,1,.36,0,1.75,1.75,0,0,1,.33.11,1.45,1.45,0,0,1,.29.17,1,1,0,0,1,.21.22l-.29.21a.87.87,0,0,0-.14-.16.93.93,0,0,0-.21-.14,1.29,1.29,0,0,0-.26-.1,1.16,1.16,0,0,0-.3,0,1.39,1.39,0,0,0-.59.12,1.32,1.32,0,0,0-.44.32,1.39,1.39,0,0,0-.28.47,1.66,1.66,0,0,0-.09.56,1.6,1.6,0,0,0,.1.56,1.4,1.4,0,0,0,.28.47,1.32,1.32,0,0,0,.44.32,1.38,1.38,0,0,0,.58.12,1.32,1.32,0,0,0,.55-.12,1,1,0,0,0,.44-.38Z" transform="translate(0 0)"/><path d="M45.58,28.53a1.86,1.86,0,0,1-.13.71,1.67,1.67,0,0,1-.92.93,1.89,1.89,0,0,1-1.39,0,1.69,1.69,0,0,1-.56-.37,1.67,1.67,0,0,1-.37-.56,1.94,1.94,0,0,1,0-1.42,1.67,1.67,0,0,1,.37-.56,1.69,1.69,0,0,1,.56-.37,1.89,1.89,0,0,1,1.39,0,1.67,1.67,0,0,1,.92.93A1.86,1.86,0,0,1,45.58,28.53Zm-.36,0a1.65,1.65,0,0,0-.09-.56,1.4,1.4,0,0,0-.28-.47,1.33,1.33,0,0,0-.44-.32,1.49,1.49,0,0,0-1.16,0,1.31,1.31,0,0,0-.44.32,1.39,1.39,0,0,0-.28.47,1.7,1.7,0,0,0,0,1.12,1.37,1.37,0,0,0,.28.46,1.33,1.33,0,0,0,.44.32,1.49,1.49,0,0,0,1.16,0,1.35,1.35,0,0,0,.44-.32,1.38,1.38,0,0,0,.28-.46A1.65,1.65,0,0,0,45.22,28.53Z" transform="translate(0 0)"/><path d="M47.84,29.63h0L49,26.85h.52v3.36h-.34V27.29h0l-1.22,2.92h-.18l-1.22-2.92h0v2.92h-.34V26.85h.52Z" transform="translate(0 0)"/><path d="M50.27,26.85h1a1.9,1.9,0,0,1,.38,0A1.05,1.05,0,0,1,52,27a.76.76,0,0,1,.25.26.81.81,0,0,1,.1.42.71.71,0,0,1-.16.46.76.76,0,0,1-.43.26h0a.89.89,0,0,1,.54.25.8.8,0,0,1,.22.59.82.82,0,0,1-.34.68,1.2,1.2,0,0,1-.39.19,1.9,1.9,0,0,1-.52.07h-1Zm.34,1.47h.69l.25,0a.69.69,0,0,0,.23-.1.52.52,0,0,0,.17-.18.56.56,0,0,0,.06-.28.51.51,0,0,0-.24-.46.75.75,0,0,0-.26-.1,1.5,1.5,0,0,0-.31,0h-.59Zm0,1.6h.64a1.73,1.73,0,0,0,.35,0,.91.91,0,0,0,.3-.11.6.6,0,0,0,.2-.2.65.65,0,0,0-.15-.8,1.07,1.07,0,0,0-.64-.16h-.7Z" transform="translate(0 0)"/><path d="M53.51,30.21h-.34V26.85h.34Z" transform="translate(0 0)"/><path d="M56.67,29.71h0V26.85H57v3.36H56.6l-2-2.89h0v2.89h-.34V26.85h.43Z" transform="translate(0 0)"/><path d="M57.77,30.21H57.4l1.45-3.36h.33l1.44,3.36h-.38l-.37-.88H58.14Zm.49-1.2h1.48L59,27.23Z" transform="translate(0 0)"/><path d="M61.8,30.21h-.34V27.15H60.33v-.3h2.59v.3H61.8Z" transform="translate(0 0)"/><path d="M63.65,30.21h-.34V26.85h.34Z" transform="translate(0 0)"/><path d="M67.75,28.53a1.86,1.86,0,0,1-.13.71,1.67,1.67,0,0,1-.92.93,1.89,1.89,0,0,1-1.39,0,1.69,1.69,0,0,1-.56-.37,1.67,1.67,0,0,1-.37-.56,1.94,1.94,0,0,1,0-1.42,1.67,1.67,0,0,1,.37-.56,1.69,1.69,0,0,1,.56-.37,1.89,1.89,0,0,1,1.39,0,1.67,1.67,0,0,1,.92.93A1.86,1.86,0,0,1,67.75,28.53Zm-.36,0A1.65,1.65,0,0,0,67.3,28,1.4,1.4,0,0,0,67,27.5a1.33,1.33,0,0,0-.44-.32,1.49,1.49,0,0,0-1.16,0,1.31,1.31,0,0,0-.44.32,1.39,1.39,0,0,0-.28.47,1.7,1.7,0,0,0,0,1.12,1.37,1.37,0,0,0,.28.46,1.33,1.33,0,0,0,.44.32,1.49,1.49,0,0,0,1.16,0,1.35,1.35,0,0,0,.44-.32,1.38,1.38,0,0,0,.28-.46A1.65,1.65,0,0,0,67.39,28.53Z" transform="translate(0 0)"/><path d="M70.73,29.71h0V26.85h.34v3.36h-.43l-2-2.89h0v2.89h-.34V26.85h.43Z" transform="translate(0 0)"/><polygon class="ac441fcf-58b0-4771-827f-958d9f5fc3a2" points="18.21 22.64 20.18 25.84 24.37 25.84 24.37 21.74 18.21 22.64"/><path class="ac441fcf-58b0-4771-827f-958d9f5fc3a2" d="M57.29,16.92l-.44.06.17.2Z" transform="translate(0 0)"/><polygon class="ac441fcf-58b0-4771-827f-958d9f5fc3a2" points="12.27 23.51 12.27 25.84 15.38 25.84 15.36 23.06 12.27 23.51"/><path class="ac441fcf-58b0-4771-827f-958d9f5fc3a2" d="M11,23.87c0-.06,0-.13.07-.19L1.13,25.14a4.64,4.64,0,0,0,.39.43c.1.1.21.19.32.28H9.51c.11-.09.23-.18.33-.28A4.76,4.76,0,0,0,11,23.87Z" transform="translate(0 0)"/><path class="ac441fcf-58b0-4771-827f-958d9f5fc3a2" d="M46.06,22.88A7.4,7.4,0,0,0,46.6,20h0v0a8.18,8.18,0,0,0-.13-1.5l-3.41.5a4.77,4.77,0,0,1,.11,1v0h0a4.73,4.73,0,0,1-.28,1.61A3.85,3.85,0,0,1,42.09,23a3.66,3.66,0,0,1-1.2.86,3.46,3.46,0,0,1-.61.2v1.83h3.34a6.46,6.46,0,0,0,.92-.73A6.57,6.57,0,0,0,46.06,22.88Z" transform="translate(0 0)"/><polygon class="ac441fcf-58b0-4771-827f-958d9f5fc3a2" points="66.54 20.05 66.11 19.54 70.34 15.01 65.83 15.67 63.06 18.83 63.01 18.83 63.01 16.09 59.87 16.55 59.87 20.05 59.87 25.84 63.01 25.84 63.01 20.57 63.04 20.57 67.29 25.84 71.45 25.84 66.55 20.05 66.54 20.05"/><path class="ac441fcf-58b0-4771-827f-958d9f5fc3a2" d="M37.81,23.82A3.55,3.55,0,0,1,36.61,23a3.94,3.94,0,0,1-.78-1.31,4.71,4.71,0,0,1-.28-1.55l-3.42.5a7.16,7.16,0,0,0,.52,2.27,6.92,6.92,0,0,0,.54,1H28.55V21.13l-3.23.47v4.24H38V23.89Z" transform="translate(0 0)"/><path class="ac441fcf-58b0-4771-827f-958d9f5fc3a2" d="M59.33,24.86l-2.24-2.1a3.24,3.24,0,0,1-1.15,1,3.54,3.54,0,0,1-1.67.38,3.79,3.79,0,0,1-1.52-.3A3.5,3.5,0,0,1,51.56,23a3.84,3.84,0,0,1-.78-1.29A4.67,4.67,0,0,1,50.5,20h0a4.54,4.54,0,0,1,.28-1.63,4.15,4.15,0,0,1,.28-.59l-3.89.57A8,8,0,0,0,47,20h0a7.29,7.29,0,0,0,.54,2.84,6.66,6.66,0,0,0,1.5,2.23,6.49,6.49,0,0,0,.91.73h8.27A6.12,6.12,0,0,0,59.33,24.86Z" transform="translate(0 0)"/><path d="M42.1,17.11a3.86,3.86,0,0,1,.78,1.29,4.34,4.34,0,0,1,.17.61l3.41-.5a6.68,6.68,0,0,0-.41-1.38,6.32,6.32,0,0,0-1.51-2.19,6.48,6.48,0,0,0-1.38-1H40.28v2.09a3.56,3.56,0,0,1,.61.2A3.61,3.61,0,0,1,42.1,17.11Z" transform="translate(0 0)"/><path d="M51.06,17.83a3.76,3.76,0,0,1,.51-.7,3.64,3.64,0,0,1,1.21-.86A3.8,3.8,0,0,1,54.33,16a3.93,3.93,0,0,1,1.5.3,2.71,2.71,0,0,1,1,.72l.44-.06L59.2,15a5,5,0,0,0-1.31-1H50.47a6.61,6.61,0,0,0-1.38,1,6.44,6.44,0,0,0-1.53,2.21,6.62,6.62,0,0,0-.39,1.25Z" transform="translate(0 0)"/><polygon points="63.01 16.09 63.01 13.97 59.87 13.97 59.87 16.55 63.01 16.09"/><polygon points="70.34 15.01 71.32 13.97 67.33 13.97 65.83 15.67 70.34 15.01"/><polygon points="15.36 23.06 15.33 20.07 15.33 20.07 15.31 18.04 15.37 18.04 16.62 20.07 16.63 20.07 18.21 22.64 24.37 21.74 24.37 20.07 24.37 13.97 21.26 13.97 21.31 20.07 21.31 20.07 21.33 22.1 21.27 22.1 20.02 20.07 20.01 20.07 16.25 13.97 12.27 13.97 12.27 20.07 12.27 23.51 15.36 23.06"/><path d="M32.11,20c0,.19,0,.37,0,.55l3.42-.5s0,0,0-.05h0v0a4.7,4.7,0,0,1,.27-1.62,3.66,3.66,0,0,1,.78-1.29,3.73,3.73,0,0,1,1.2-.85l.2-.08V14H35.55a6.51,6.51,0,0,0-1.38,1,6.31,6.31,0,0,0-1.51,2.19A7.33,7.33,0,0,0,32.11,20v0Z" transform="translate(0 0)"/><path d="M1.13,25.14l9.93-1.45a5.8,5.8,0,0,0,.34-2V14H8.19v7.45a4,4,0,0,1-.13,1,2.43,2.43,0,0,1-.43.87,2.11,2.11,0,0,1-.78.61,2.69,2.69,0,0,1-1.16.23,2.69,2.69,0,0,1-1.16-.23,2,2,0,0,1-.77-.61,2.65,2.65,0,0,1-.43-.87,3.71,3.71,0,0,1-.14-1V14H0v7.72a5.84,5.84,0,0,0,.39,2.19A4.85,4.85,0,0,0,1.13,25.14Z" transform="translate(0 0)"/><polygon points="28.55 21.13 28.55 20.05 28.55 13.97 25.32 13.97 25.32 20.05 25.32 21.6 28.55 21.13"/><path d="M31.21,6.5a1.63,1.63,0,0,0-.52,1.17,3.84,3.84,0,0,0,1.26-.87C33,5.78,32.16,5.51,31.21,6.5Zm18.22.89a6.72,6.72,0,0,1-1,.82,1.25,1.25,0,0,1,.8.18A8.17,8.17,0,0,0,49.44,7.39ZM20,6.2l.16-.31A1,1,0,0,0,20,4.66a2.12,2.12,0,0,0-2.19-.75,1,1,0,0,0-.54.46l-.05.1A1.43,1.43,0,0,0,16.5,4c-.21-.06-.54-.18-.65-.22a1,1,0,0,0-1.22.47,1.62,1.62,0,0,0-.68-.47,3.58,3.58,0,0,0-1.49-.25l.06-.08a2,2,0,0,0,.28-1l0-.34a2.16,2.16,0,0,0,0-.28,1.24,1.24,0,0,0-.4-1A1.25,1.25,0,0,0,11.25.64C8.51,1.31,5.95,2,4.66,2.41c-3.27,1-3.36,1-3.55,1.24S.77,4,.5,5A1.4,1.4,0,0,0,.7,6.36,1.4,1.4,0,0,0,2,6.79l.51-.08c-.54,1.06-.92,1.75-1,1.91a1.65,1.65,0,0,0-.25.85,1.31,1.31,0,0,0,.58,1.09,4.45,4.45,0,0,0,1,.43,1.33,1.33,0,0,0,1.54-.47l.06,0a2.29,2.29,0,0,0,1.24.5c.67,0,1-.55,1.36-1L7.1,10c.16-.23.48-.74.8-1.28a2.89,2.89,0,0,0,.18.81,2.37,2.37,0,0,0,1.76,1.56,3.51,3.51,0,0,0,2.62-.63c.12-.08.25-.18.37-.28a3.7,3.7,0,0,0,.3.33l0,0a1.76,1.76,0,0,0,.47.34L12.91,12a4.28,4.28,0,0,0-.25.5h1.11c.3-.52,2-3.35,2-3.35s-.88.55-1.15.69-.47.25-.77-.05-.63-.6-.36-1.21,1.73-3,2-3.85c0,0,.44.16.74.25s.41.22.14.77-1.1,2-1.24,2.36,0,.47.66.06a6.09,6.09,0,0,0,.88-.55c.05-.08,1-2,1.46-2.8,0,0,.47-.17,1.15.52.06.06-2.61,4.81-4,7.17h1.13l1.38-2.45c.67-1.19,1.23-2.19,1.62-2.91ZM3.65,9.84c-.14.27-.33.25-.52.19a3.73,3.73,0,0,1-.77-.3c-.16-.11-.19-.33,0-.6s1-1.7,2-3.82c0,0-1.84.44-2.39.49s-.52-.19-.44-.49a3.74,3.74,0,0,1,.36-1c.11-.11,5-1.61,9.67-2.75.27-.07.41,0,.36.41a3.44,3.44,0,0,1-.14.93c-.15.21-.33.28-1.07.5L6.37,4.73s.19.05.16.19S4.13,8.87,3.65,9.84ZM7.44,7.53c-.44.74-1,1.59-1.15,1.87s-.44.66-.6.66A1.7,1.7,0,0,1,5,9.73c-.25-.16-.3-.33-.22-.55S5.38,8,6,6.87s.62-1.39.77-1.51a1.57,1.57,0,0,1,.91-.16c.11.08.05.6.05.6.44-.22.88-.44,1.32-.63s.55-.14.55.05a3.72,3.72,0,0,1-.19.85A.8.8,0,0,1,9,6.65,10.87,10.87,0,0,0,7.44,7.53Zm4.45,2.09a2.54,2.54,0,0,1-1.9.47c-.9-.15-1.79-1.7-.38-3.41a6,6,0,0,1,2.47-2,2.25,2.25,0,0,1,1.51.11C14.79,5.2,13.64,8.43,11.89,9.62ZM28,6.65c1.11-1.12.41-1.45-.76-.3a2.46,2.46,0,0,0-.65,1.1S27.1,7.6,28,6.65ZM47.84,8.94s.11.48.53.44S49,9.26,49.1,9a1.54,1.54,0,0,0-.71-.21C48,8.8,47.84,8.94,47.84,8.94ZM10.22,9c.6.44,3.23-2.62,2.47-3.27S9.41,8.4,10.22,9ZM73.46,6.08a1.52,1.52,0,0,0-.84-.94c-1.08-.55-3.16.11-4.29.7l-.82.45a11,11,0,0,1-1.63.8,5.4,5.4,0,0,0-.07-.68,2.27,2.27,0,0,0,.81-1.5h0c0-.82-.31-1.76-1.14-1.94A2.78,2.78,0,0,0,63.1,4.22a1.24,1.24,0,0,0-1.16-.77,3.23,3.23,0,0,0-.84.21,1.24,1.24,0,0,0-1-.42,7.25,7.25,0,0,0-1.66.65,2.75,2.75,0,0,0-1.83-.75l-.27.06c-.05-.57-.52-1-1.38-1.36a.82.82,0,0,0-1.15.36c-.21.48-1.05,1.27-1.44,1.88a2,2,0,0,0-.69-.8A1.48,1.48,0,0,0,50.47,3c-.13,0-.39.1-1,.71-.15.14-.27.26-.37.37L49,4a2.23,2.23,0,0,0-1.46-.35h-.09A2.68,2.68,0,0,0,47.8,1c-.45-.83-1.49-1.27-3-.87-2.7.71-4,1-5.22,1.21a7.59,7.59,0,0,1-1.65.11,1,1,0,0,0-1.1.94c0,.37,0,.77,0,1.08,0,1.81.36,2.15,1,2.47l.23.08c-.31.54-.6,1-.84,1.43-.68,1.14-.92,1.53-.92,2v0A1.57,1.57,0,0,0,37,10.66a1.74,1.74,0,0,0,1.41.37,1.09,1.09,0,0,0,.24-.1,1.33,1.33,0,0,0,.52.2,1.41,1.41,0,0,0,1.06-.29c.67-.5,1.24-.95,1.79-1.4l.17-.15a2,2,0,0,0,.62,1.32c.67.62,1.74.69,3.18.19.31-.11.61-.23.87-.34a2.6,2.6,0,0,0,1.85.63,2.65,2.65,0,0,0,1.74-.63,1.51,1.51,0,0,0,.68.47,1.48,1.48,0,0,0,.92,0c-.42.61-.95,1.41-1,1.57l0,0h1.17c.68-1,2.23-3.23,2.23-3.23s-.69.69-1,.68-.5-.72-.5-.72c-.4.37-1.08.86-1.42.73-.69-.25-.29-1.5-.29-1.5a1.75,1.75,0,0,1-.94.51,1.46,1.46,0,0,1-1.54,1.08,1.44,1.44,0,0,1-1.52-.89s-2.77,1.53-3.68.68S43.92,7,44.93,6c1.56-1.63,4.61-2,3.49.22a4.74,4.74,0,0,1-3.9,2.4c-.14.2-.34,1.31,1.81.18a8.8,8.8,0,0,0,3.33-2.86c.08-.2-.12-.63-.08-.86A3.62,3.62,0,0,1,50.72,4a.91.91,0,0,1,.76.65c0,.35-1,1.59-1,1.59a6.45,6.45,0,0,1-.09,2A6.21,6.21,0,0,0,52.06,6.3c.6-.86,1.17-1.83,1.24-1.84s.7.36.75.56-.09.33-.34.67C52.6,7.19,51.64,8.81,51.85,9s.94-.57.94-.57a3.82,3.82,0,0,1,1-2.07,5.81,5.81,0,0,1,2.87-2.24A2.25,2.25,0,0,1,58,4.81c.14.19-.17.54-.17.54a12.63,12.63,0,0,1,2.39-1.14c.13,0,.32.21.37.38s-.31.54-.31.54A6.44,6.44,0,0,1,62,4.43c.22,0,.61,1,.39,1.24S61.23,7.47,60.88,8s-.41.7-.22.56A33.22,33.22,0,0,0,63.92,6c.08-.2-.22-.72-.13-1,.15-.43,1.1-1.13,1.47-1s.36.58.37,1-.91,1.16-.91,1.16a4.33,4.33,0,0,1,.08,2.13c1.28.21,2.69-.82,4-1.48s2.84-1,3.38-.7.35.53.11.9-.42.41-.6.38c-1.26-.17-1.32.1-3.63,1.09S64.67,9,64.67,9a1.62,1.62,0,0,1-1.47,1c-1.26.05-1.44-1.32-1.44-1.32C60,10,59.85,10,59.72,10s-.25-.1-.47-.29-.33-.4-.14-.74c.34-.6,2.12-3.2,2.07-3.31s-.23-.16-.74.14c-1.18.68-2.69,3.68-2.81,3.89s-.25.39-.4.3c-.64-.41-.71-.49-.64-.67a10.39,10.39,0,0,1,.87-1.54,18.89,18.89,0,0,0,1.4-2.2c-.14-.23-1.35.83-1.35.83-1.19,2.05-2.92,4.69-3.85,6.11h1.18l1.32-2c.13.1.3.21.53.36a1.13,1.13,0,0,0,.89.14,1.41,1.41,0,0,0,.83-.67l.16.15a1.71,1.71,0,0,0,1.09.55c.41,0,.64-.08,1.7-.83a2.2,2.2,0,0,0,1.86.81,2.58,2.58,0,0,0,1.93-.95,7.66,7.66,0,0,0,3.26-.75c.57-.24,1-.45,1.35-.61,1-.48,1.09-.51,1.76-.41a1.53,1.53,0,0,0,1.58-.84l0-.05A1.61,1.61,0,0,0,73.46,6.08ZM44.93,5.29a33.66,33.66,0,0,1-5.25,4.78.4.4,0,0,1-.62-.08c-.12-.16-.32-.51-.32-.51s-.36.56-.57.62-.89-.34-.9-.67S38.68,7.14,40,4.57c0,0-1.25.74-1.71.52s-.5-1.41-.4-2.58a2.25,2.25,0,0,0,1.35,0c1-.18,2.54-.6,5.75-1.42S47.14,2.92,44.93,5.29Zm9.85-1.17c-.17.2-.38.5-.38.5s-.77-.08-.75-.6.92-1,.93-1.27c0,0,.74.28.75.54S54.93,4,54.79,4.12ZM47.61,5.41c-.14-.13-1,.42-1.54.89A6.09,6.09,0,0,0,45,7.64a2.94,2.94,0,0,0,1.62-.76C47.41,6.21,47.75,5.55,47.61,5.41Zm-5.8-1.61c.27.29.36.35.21.58s-1.39,2.4-1.73,2.92-.61,1-.43,1.05c.69.31,5.41-5.15,5-5.54S41.81,3.81,41.81,3.81ZM62.71,8.37c-.17.2.12.76.37.77a.72.72,0,0,0,.62-.42S63,8,62.71,8.37ZM56.62,5.07c-.16,0-.5.24-1.44,1.23s-1.8,2.52-1.51,2.64,1.41-.86,1.56-1.06S57,5.6,57,5.46,56.77,5.08,56.62,5.07ZM71,8.56a1.27,1.27,0,1,0,1.27,1.27A1.28,1.28,0,0,0,71,8.56Zm-.75,1.87a.94.94,0,0,1,0-1.2Zm.75.36a1,1,0,0,1-.73-.34h.37v-.33h.61c.12,0,.16,0,.16.18v.15h.32A1,1,0,0,1,71,10.8Zm-.36-1V9.51h.61c.12,0,.18,0,.18.13v0c0,.09,0,.13-.14.13Zm1.15.56v-.13c0-.21-.1-.26-.21-.28h0c.18,0,.22-.14.22-.31V9.57c0-.23-.08-.37-.38-.37H70.29a1,1,0,0,1,1.5,1.18ZM36,6.68a1.36,1.36,0,0,0-1-.54,1.18,1.18,0,0,0-.51.08h0a2.09,2.09,0,0,0-.75-1.63,2.75,2.75,0,0,0-3.27-.08,2.5,2.5,0,0,0-.29.19,1.87,1.87,0,0,0-.25-.29,2.74,2.74,0,0,0-3.56.1A5.6,5.6,0,0,0,24.91,6.3l-.17.35-.11,0a1.11,1.11,0,0,0-.77.1l.59-1.11c.32-.59.59-1.1.76-1.46l.25-.52a4.14,4.14,0,0,0,.35-.85,1.59,1.59,0,0,0,0-.34,1.39,1.39,0,0,0-.34-.92,2.88,2.88,0,0,0-1.7-.77,1,1,0,0,0-1.08.67c0,.1-.2.51-1.55,3.09C19,8.74,19,9,18.95,9.27a2.17,2.17,0,0,0,.64,1.41,1.69,1.69,0,0,0,2.13.46c.6-.23,1.28-.5,2.24-.92l.46-.19.2-.08a2.53,2.53,0,0,0,2.1,1.25,5.42,5.42,0,0,0,2.84-.82,2.88,2.88,0,0,0,1.86.76C34,11.17,35.92,8.9,36,8.8A1.66,1.66,0,0,0,36,6.68ZM23.57,9.31c-.91.4-1.58.66-2.21.9s-.75.14-1-.18a1.41,1.41,0,0,1-.41-.73A35.89,35.89,0,0,1,22.06,5a31.32,31.32,0,0,0,1.61-3.24,2.24,2.24,0,0,1,1.08.43c.26.31,0,.61-.45,1.58s-1.92,3.45-2.42,4.88c0,0,2.4-1.06,2.51-1s.3.73.29,1S24.45,8.93,23.57,9.31ZM35.24,8.16a5.65,5.65,0,0,1-3.8,2,2.22,2.22,0,0,1-1.7-1,6,6,0,0,1-2.93,1.11C25,10,25,8.2,25.79,6.76A4.59,4.59,0,0,1,27,5.29a1.78,1.78,0,0,1,2.26-.16c.6.57.26,1.66-1,2.57a3.69,3.69,0,0,1-1.81.71s0,.85,1.1.65a6.67,6.67,0,0,0,1.86-.88,3.47,3.47,0,0,1,.33-1.33A3.53,3.53,0,0,1,31,5.37a1.8,1.8,0,0,1,2.14,0c.67.57.55,1.62-.73,2.48a9.73,9.73,0,0,1-1.29.72s.2.73,1.25.34a8.58,8.58,0,0,0,2.4-1.67c.11-.11.25-.17.47.09A.67.67,0,0,1,35.24,8.16Zm15.4-3.52a1.16,1.16,0,0,0-.44.41,2.17,2.17,0,0,0,.06.46,3.67,3.67,0,0,0,.38-.44C50.67,5,50.72,4.65,50.64,4.65ZM65,4.51c-.07,0-.43.3-.51.42s0,.53,0,.53a5.86,5.86,0,0,0,.56-.64A.3.3,0,0,0,65,4.51ZM64,7l-.68.58s.24,0,.68.41A2.25,2.25,0,0,0,64,7Z" transform="translate(0 0)"/></svg>